<mxfile host="app.diagrams.net" modified="2023-06-07T16:04:01.463Z" agent="Mozilla/5.0 (X11; Ubuntu; Linux x86_64; rv:109.0) Gecko/20100101 Firefox/113.0" version="21.3.7" etag="JGaJxtj-Uk2_h3YfWfp_" type="github">
  <diagram name="Page-1" id="GDZOLovKXRF2OgwwoaTu">
    <mxGraphModel>
      <root>
        <mxCell id="0" />
        <mxCell id="1" parent="0" />
      </root>
    </mxGraphModel>
  </diagram>
</mxfile>
